<svg version="1.0" xmlns="http://www.w3.org/2000/svg"
 width="256.000000pt" height="256.000000pt" viewBox="0 0 256.000000 256.000000"
 preserveAspectRatio="xMidYMid meet">

<g transform="translate(0.000000,256.000000) scale(0.100000,-0.100000)"
fill="hsl(215, 28%, 17%)" stroke="none">
<path d="M160 2539 c-60 -27 -107 -74 -136 -134 l-24 -50 0 -1075 c0 -1060 1
-1076 21 -1120 27 -60 74 -107 134 -136 l50 -24 1075 0 1075 0 50 24 c60 29
107 76 134 136 20 44 21 60 21 1120 l0 1075 -24 50 c-29 60 -76 107 -136 134
-44 20 -60 21 -1120 21 -1060 0 -1076 -1 -1120 -21z m1670 -489 c18 -18 20
-33 20 -190 0 -157 -2 -172 -20 -190 -19 -19 -33 -20 -320 -20 l-300 0 0 -115
0 -115 208 0 c172 0 211 -3 230 -16 21 -15 22 -21 22 -194 0 -173 -1 -179 -22
-194 -19 -13 -58 -16 -230 -16 l-208 0 0 -233 c0 -194 -3 -236 -16 -255 -15
-22 -19 -22 -228 -22 -167 0 -216 3 -232 14 -18 14 -19 35 -22 764 -2 747 -2
749 19 775 l20 27 530 0 c516 0 530 -1 549 -20z"/>
</g>
</svg>
